<svg width="20" height="19" viewBox="0 0 20 19" fill="none" xmlns="http://www.w3.org/2000/svg">
<g id="Frame">
<path id="Vector" d="M10 12.4624C11.6396 12.4624 12.9688 11.1332 12.9688 9.49365C12.9688 7.85406 11.6396 6.5249 10 6.5249C8.3604 6.5249 7.03125 7.85406 7.03125 9.49365C7.03125 11.1332 8.3604 12.4624 10 12.4624Z" fill="#333333"/>
<path id="Vector_2" d="M7.09823 6.5642C7.88324 5.77919 8.92698 5.34219 10.0371 5.34219C11.1472 5.34219 12.1909 5.78149 12.976 6.5665C13.4741 7.06451 13.8299 7.66309 14.0237 8.33105H17.1436V4.1377C17.1436 3.15393 16.3832 2.39355 15.3994 2.39355H4.71191C3.72814 2.39355 2.89355 3.15393 2.89355 4.1377V8.33105H6.05052C6.24431 7.66309 6.60011 7.06228 7.09823 6.56413V6.5642ZM15.9561 5.48109C15.9561 5.74345 15.7434 5.95609 15.4811 5.95609H14.0561C13.7937 5.95609 13.5811 5.74345 13.5811 5.48109V4.05609C13.5811 3.79373 13.7937 3.58109 14.0561 3.58109H15.4811C15.7434 3.58109 15.9561 3.79373 15.9561 4.05609V5.48109ZM12.976 12.4421C12.191 13.227 11.1472 13.6547 10.0371 13.6547C8.92698 13.6547 7.88328 13.2294 7.09823 12.4444C6.31467 11.6608 5.88253 10.5948 5.88093 9.51859H2.89355V14.8252C2.89355 15.809 3.72814 16.6436 4.71191 16.6436H15.3994C16.3832 16.6436 17.1436 15.809 17.1436 14.8252V9.51859H14.1933C14.1917 10.5948 13.7596 11.6585 12.976 12.4421Z" fill="#333333"/>
</g>
</svg>
