<?xml version="1.0" encoding="UTF-8"?>
<svg id="Camada_2" data-name="Camada 2" xmlns="http://www.w3.org/2000/svg" viewBox="0 0 927.93 671.77">
  <defs>
    <style>
      .cls-1 {
        fill: #211915;
      }
    </style>
  </defs>
  <g id="Camada_5" data-name="Camada 5">
    <g>
      <path class="cls-1" d="m172.15,248.43s-35.85-31.11-11.56-33.19c9.19,0,22.37,19.78,19.85,5.04-4.75-13.7,19.96-25.15,18.74-1.59-.78,8.89-2.15,25-4.81,34.19s-8.96,7.93-22.22-4.44Z"/>
      <path class="cls-1" d="m747.01,93.8s5.04-32.61,13.16-53.76,14.85-12.26,14.85-12.26c0,0-15.68,58.28-17.59,68.73s-10.42-2.71-10.42-2.71Z"/>
      <path class="cls-1" d="m922.53,126.64l-13.63,8.59s.13-16.44-11.85-20.59c-14.38-4.44-25.93,9.78-36.15,27.56s-13.78,17.78-21.56,6.89c-10.67-18.44-33.78,2.67-38.22,14.89-8.67,18.22-7.78,39.56-13.56,46.44-11.42,19.13-19.26,36.56-23.26,48.67-17.19,58.07-21.26,15.19-20.52,4-.44-75.11,6-119.8,10.74-148.59,3.66-32.35,11.32-40.93,15.72-43.35,33.5-7.03,61.19-12.11,61.19-12.11h0c7.15-1.07,13.71-1.88,18.8-2.17,59.56-3.56,52.74-17.63,31.7-20.89-12.96-2.83-36.85.54-59.04,5.06,0,0,0,0,0,0h0c-19.29,3.93-37.28,8.72-45.65,11.03-.28.08-11.41,3.26-12.36,3.7-.74.34,6.29-15.69,10.1-27.65,4.86-43.19-6.26-25.29-6.82-19.4-.59,6.22-10.05,40.95-14.51,49.61-22.83,5.97-39.67,10.7-51.86,14.31-.19-1.89,9.72-32.39,3.38-29.85-4.58,2.86-12.67,30.95-13.34,32.86-13.84,4.28-18.66,6.25-18.66,6.25h0c-94.61,31.74-128.87,51.23-129.16,47.85,5.78-60,13.11-69.78,19.11-82.22,12.22-20.22,0-12,0-12-29.33,33.78-31.11,99.11-36.44,101.19-52.15,30.81-72.05,46.52-72.05,46.52,0,0-5.28-5.04-8.84-18.37-12.44-36.89-13.78-26.22-.89-56,26.22-70.22-8.89-57.48-8.89-57.48-23.22,9.19-25.48,39.7-23.04,53.93,4.97,25.78,10.6,28,7.48,34.22-4.89,15.56-64.67,102.44-68.89,98.22-1.33-15.11-12.44-26.96-22.81-43.56-10.37-16.59-16.3-24-20.44-38.81,4.44-65.19-16.3-57.48-20.74-54.22-18.67,22.52,2.37,49.78,10.67,63.7-2.67,19.85-8,60.44-14.67,81.78-6.67,21.33-18,71.33-20.89,86.44-12.7,35.27-18.3,20.22-21.33,10.44-4.22-15.56-2.89-32.89-10-48.44-4.74-5.93-10.74,4.59-10.74,12,0,27.56-9.78,65.78-16,93.04-6.81,37.93-23.93-4.37-24.81-16.81,0-17.33-6.89-28.96-16.37-30.44-9.48-1.48-23.41,14.67-23.7,53.04-.3,38.37-5.15,27.35-5.15,27.35-7.7-7.41-13.52,10.72-15.59,27.02-2.07,16.3-8.59,45.04-10.07,52.15-1.48,7.11-6.81,36.15-28.74,9.19-21.93-26.96-26.67-16.89-33.78-5.93-7.11,10.96-15.7,59.26-19.77,108.15-4.07,48.89-5.12,5.63-8.67-16.3-14.22-139.85-2.04-250.22,4.19-313.22s16.56-64.22,16.56-64.22c0,0,6.44-5.44-1.33-5.33-7.78.11-11,11.33-11,11.33C-3.72,333.41.16,442.04.16,474.19c1.19,172.44,7.41,177.78,9.63,184.22,20.44,41.78,29.33-27.33,28.44-32.67,2.11-24.9,7.78-71.11,9.56-80.67,6.89-33.56,15.11-25.11,29.78-9.33,41.56,43.56,50.28-56.22,50.67-61.33.25-3.33.22-29.33,8.67-8.67,12.67,24.22,29.56,3.78,32.89-7.33,13.78-41.11,2.22-64,14.89-42,27.11,36,34.89-39.56,34.89-39.56,3.11-18,5.78-45.33,12-26.22,16.89,44.67,33.33,13.33,42.67-21.78,27.11-87.56,35.56-153.78,35.56-146.67,5.78,20.89,18.67,36.44,18.67,36.44,25.78,32.44,2.89,52-1.11,61.56-29.33,62,8.89,58,18.89,46,19.11-24.44,7.93-57.04,11.56-74.22,31.11-34.22,61.78-88,71.11-102.22,2.81,17.04,15.56,46.67,15.56,46.67-20.97,25.22-28.89,44.3-31.67,63.56-6.22,66.67,53,72.89,62.33,40,9.68-45.41-8.55-79.12-14.67-102.67,8.5-8.36,50.11-34.26,66.22-42.67-12,230.67-8.3,251.56-8.3,251.56,5.56,103.78,44.74,71.22,47.52,31.63,2.32-29.32,9.89-87.18,11.45-77.4,2.22,16.67,18.33,15.72,25.67,8.39,7.39-6.78,17-44.61,18.33-39.94,8.3,56.46,16.32,48.42,23.19,42.96,18.15-23.56,21.7-69.63,23.48-32.74,14.22,65.48,49.48-69.33,51.85-80.89,1.19-13.93-5.33-10.07-9.19,5.04-32,121.48-34.96,51.11-36.74,34.96-5.89-58.88,6.2-131,12.99-164.98h0c0-2.75,10.1-45.08,10.1-45.08l3.19-.84,3.81-.95c3.87-1,7.86-2,11.93-3,9.27-2.14,20.12-4.52,30.15-5.57,1.78,1.09,2.64,6.3,2.34,7.08-45.02,274.98,3.56,228.67,11.11,216,24.57-58.28,36.15-97.48,36.44-82.67,1.78,16.44,7.11,42.67,26.67,19.56,19.56-23.11,18.37-59.85,18.37-59.85l19.85-13.93s-6.07,20.15.3,35.26c10.67,36.15,42.67-1.78,41.48-22.52,3.56-28.3,11.79-37.61,11.79-37.61,24.49-21.91,8.06-12.46,8.06-12.46ZM148.38,463.63c-13.33-11.56,0-71.11,0-71.11,8.59-34.37,13.37-16.22,13.33-6.81,0,5.33,0,89.48-13.33,77.93Zm148.12-311.43c-6.72-6.97-10.23-19.19-10.23-19.19-2.93-9.3,6.94-24.21,11.63-6.88,1.74,6.71-1.4,26.07-1.4,26.07Zm45.51,157.8c-9.6,23.78-19.2,15.84-19.11,9.33-1.33-10,12.22-35.11,12.22-35.11,2.53-4.95,4.33-6.78,6.89-9.63,2.22,11.85,2.44,24.52,0,35.41Zm83.85-191.11c-6.76-12.81-6.7-31.85-6.7-31.85-.33-14.58,20.07-31.9,19.59-5.04-.3,10.37-12.89,36.89-12.89,36.89Zm37.48,151.11c3.72,42.91-21.68,47.32-36.15,26.81-25.84-32.77,21.03-87.3,21.19-87.26,7.11,14.76,12.44,42,14.96,60.44Zm134.67,87.41c-26.67,37.93-8.59-54.81-8.59-54.81,1.33-15.89,21.63-21.63,22.81-9.19,1.19,12.44-5.93,44.44-14.22,64Zm59.48-109.95c2.22,48,2.22,67.56,2.22,67.56,0,0-24.89,82.67-33.11,4.44-3.31-28.94-2.89-58.22-28.89-52.89-16.67,5.56-20.22,24-27.56,65.33-1.63,17.62-5.13,32.22-16.67,92.89,0,0-17.33,91.11-27.11-35.11-2.78-30.67-2-75.18,4.29-180.12l5.64-58.55s74.37-33.48,104.59-44.15c30.22-10.67,45.04-15.41,45.04-15.41,0,0-29.33,70.67-28.44,156Zm151.7-16.42c-12.44,4.74-7.97-33.78-7.97-33.78v-3.56s16.27,0,22.78-8.89-2.37,41.48-14.81,46.22Zm6.98-53.93c-26.67,15.11-4.16-16.88-2.38-18.36,2.26-3.22,8.5-4.61,12.22.07,2.89,4.48,7.49,9.84-9.84,18.29Zm60.66,22.76c-12.44,4.74-7.97-33.78-7.97-33.78v-3.56s16.27,0,22.79-8.89c6.52-8.89-2.37,41.48-14.81,46.22Zm5.62-51.65c-26.67,15.11-4.44-13.63-2.67-15.11,2.26-3.22,8.5-4.61,12.22.07,2.89,4.48,7.78,6.59-9.56,15.04Z"/>
    </g>
  </g>
</svg>